<svg xmlns="http://www.w3.org/2000/svg" viewBox="0 0 64 37.99"><defs><style>.cls-1{fill:#fff;fill-rule:evenodd;}.cls-2{fill:#03908b;}.cls-3{fill:#d4822f;}</style></defs><g id="Layer_2" data-name="Layer 2"><g id="Live"><path class="cls-1" d="M64,19c0,10-14.33,19-32,19s-32-9-32-19S14.32,0,32,0,64,9,64,19Z"/><path class="cls-2" d="M61.22,13.47C56,6.09,44.64,1.14,31.77,1.14,19.13,1.14,7.86,6.48,2.86,13.47H25.4c3.7-4.2,9.39-7,18.31-7C55.5,6.42,61.22,13.47,61.22,13.47Z"/><path class="cls-3" d="M2.73,24.53C7.94,31.9,19.44,36.86,32.31,36.86c12.39,0,23.93-5,28.91-12.33H38.68c-3.7,4.19-9.39,7-18.3,7C8.42,31.54,2.73,24.53,2.73,24.53Z"/><path class="cls-2" d="M16.72,16.64H11.77c-.86,0-1.27.11-1.6.64L8.69,19.52c-.12.18-.24.41-.41.41s-.3-.23-.42-.41L6.38,17.28c-.33-.53-1-.64-1.82-.64H2.31l3.38,4.25a2.66,2.66,0,0,0,2.18.66h.8a2.65,2.65,0,0,0,2.17-.66c.12-.15,1.46-1.86,2.43-3.07a.73.73,0,0,1,.67-.3c.49,0,.44.42.44.42v2.89a.72.72,0,0,0,.71.69h1.64a.73.73,0,0,0,.82-.69V17.36A.73.73,0,0,0,16.72,16.64ZM61.6,20.32H57.24c-.62,0-1-.23-1-.83,0-.43,0-2.21,0-2.21a.74.74,0,0,0-.79-.72H54c-.76,0-.9.45-.9.72v3.14H47.86c-.54,0-.77-.08-.77-.53a2.61,2.61,0,0,1,0-.44H51c.58,0,1.06-.1,1.06-.61v-.38H47.87c-.54,0-.78-.07-.78-.42v-.35h4.54c.4,0,.8-.18.8-.64v-.41H40.88c-.7,0-.69-.48-.69-.48,0-.34-.22-.68-.87-.68H37.87c-.66,0-.87.34-.87.68a.52.52,0,0,1-.59.48H33.83a.51.51,0,0,1-.58-.48c0-.34-.21-.68-.87-.68H30.93c-.65,0-.86.34-.86.68,0,0,0,.48-.63.48H19.37a.76.76,0,0,0-.87.76v3.38c0,.31.13.74.89.74h6.68c.6,0,1.1-.22,1.1-.75v-.35H22.41c-.44,0-.74-.15-.74-.58v-.38h4c.47,0,.95-.11.95-.61v-.38h-4.2c-.44,0-.77,0-.77-.32v-.46h6.92A1.42,1.42,0,0,1,30.06,19v1.75c0,.23.17.72.89.72h1.38a.82.82,0,0,0,.92-.72V19a1.23,1.23,0,0,1,1.28-1.19h1.2A1.17,1.17,0,0,1,37,19v1.75a.78.78,0,0,0,.84.72h1.42c.76,0,.93-.45.93-.72V19a1.19,1.19,0,0,1,1.31-1.19h1.21A1.2,1.2,0,0,1,43.91,19v1.76c0,.35.27.73,1,.73H60.35c.69,0,1.25-.3,1.25-.83Z"/></g></g></svg>